<?xml version="1.0" encoding="utf-8"?>
<!-- Generator: Adobe Illustrator 19.2.1, SVG Export Plug-In . SVG Version: 6.00 Build 0)  -->
<svg version="1.1" id="layer" xmlns="http://www.w3.org/2000/svg" xmlns:xlink="http://www.w3.org/1999/xlink" x="0px" y="0px"
	 viewBox="0 0 652 652" style="enable-background:new 0 0 652 652;" xml:space="preserve">
<style type="text/css">
	.st0{fill:#5D1D79;}
	.st1{fill:#D93A1F;}
</style>
<g>
	<g>
		<path class="st0" d="M190.3,281.7c-0.2-0.1,25.2-6.2,91.5-6.2c0,0,86.6,0.4,120.5,5.8c0,0-15.8,8.1-66.1,12.6
			c0,0-50.5,1.7-53.7,1.3l-26,100.9c0,0-16.6-13.9-9.4-46.1c0,0,7.8-36.6,12.8-55.3C259.8,294.7,209.8,291.6,190.3,281.7"/>
		<path class="st0" d="M279.9,375.1l15.1-58.5h17.2l-5.1,19.9c0,0,9.1-24.2,24.4-21.2l-3.6,15.2c0,0-16.4-8.6-30.9,44.6H279.9z"/>
		<path class="st0" d="M392.2,319.6l-14.1,55.7l-16.8-0.2l4.8-16.1c-12,20.8-26.6,17.3-26.6,17.3c-13.2-4.3-10.3-18.4-10.3-18.4
			c3.1-28.5,25.8-39.2,25.8-39.2C372.9,309.6,392.2,319.6,392.2,319.6 M373.5,325c0.1-0.3-9.5-3.4-16.6,6.9c0,0-7.4,9.6-9.7,22.9
			c0,0-2.2,7.7,3.5,9.2c0,0,5.9,0.9,11.8-11.2C362.6,352.8,368.1,343.2,373.5,325"/>
		<path class="st0" d="M396.6,375.1l15.1-58.7h16.1l-4.2,15.2c0,0,10.3-20.1,28.8-15.8c0,0,7.9,1.7,6.7,12.2l-11.3,47.1l-17.6-0.2
			l9.8-38.1c0,0,3.4-9.4-2.5-9.2c0,0-11.6-2.2-24,47.3L396.6,375.1z"/>
		<path class="st0" d="M508,326.9c0.2,0.1,4-9.2,4-9.2s-15.6-6.6-26.7-0.6c0,0-10.9,4.3-12.4,15c0,0-1.1,6.9,5.9,13.9
			c6.9,7.1,8.2,8.6,8.2,8.6s4.6,5.1,0.2,9.6c0,0-7,5.8-19.2-1.9l-5.3,9.5c0,0,15.4,8,29.7,2.7c0,0,11.2-4.6,13-14.1
			c0,0,2-7.4-2.4-14c0,0-8.4-8.9-10.6-11c0,0-6-5.2,0.3-9.7C492.7,325.6,497.9,322.7,508,326.9"/>
		<polygon class="st0" points="533.5,300.3 551.1,300.2 548.3,310 530.6,310 		"/>
		<polygon class="st0" points="529.4,316.1 546.7,316.3 531.8,375.4 514,375.4 		"/>
		<path class="st0" d="M564.5,326.1c0.2,0,5.3-19.4,5.3-19.4l16.7-0.2l-4.5,19.4c0,0,34.2-0.7,44.7,2.9c0,0-11.6,6-46.8,5.8
			l-10.5,40.8h-17.5l10.9-42.7c0,0-9.2-1.4-12.8-4.6C550,328.1,552.3,326.1,564.5,326.1"/>
		<path class="st1" d="M78.5,302.8c0.1,0-4.6,11.4-4.6,11.4s-5.9-4.5-14.4-2.2c0,0-10.2,3.4-2.9,13c0,0,8.4,8.3,11,11.6
			c0,0,7.3,7.2,6.3,16.3c0,0-0.3,12-10.3,18.4c0,0-17.3,11.9-36.9-0.5l5.3-11.1c0,0,8,5.6,17.3,3.9c0,0,10.3-3.1,3.5-13.8
			c0,0-3-3.7-6.1-6.5c0,0-7.5-6.7-9.8-12.2c0,0-4.3-9.6,0.8-18.8c0,0,5-9.9,18.4-12.6C55.9,299.7,69.8,297.9,78.5,302.8"/>
		<path class="st1" d="M82.3,375.5l14.8-75.2l28.7-0.3c0,0,15.6,0,19,9.8c0,0,3.4,8.8-3.4,18c0,0-4.7,5.7-13.4,8
			c0,0,12.2,2,14.3,11.3c0,0,2.6,12-7.2,20.7c0,0-6.8,6.3-17.9,7L82.3,375.5z M104.2,363.5l9.1-0.3c5.1-0.8,7.7-5.4,7.7-5.4
			c2.8-3.8,2-11.4,2-11.4c-1.7-4.9-7-4.8-7-4.8h-7.8L104.2,363.5z M110.7,330.6h6.5c4.8-1.1,6.3-4,6.3-4c2.2-3.1,2.2-8.9,2.2-8.9
			c-0.1-4.6-3.8-5.8-3.8-5.8l-7.6-0.4L110.7,330.6z"/>
		<path class="st1" d="M201.5,302.6c0.1,0-4.6,11.4-4.6,11.4s-5.9-4.5-14.4-2.2c0,0-10.2,3.4-2.9,13c0,0,8.4,8.3,11,11.6
			c0,0,7.3,7.2,6.3,16.3c0,0-0.3,12-10.3,18.4c0,0-17.3,11.9-36.9-0.5l5.3-11.1c0,0,8,5.6,17.3,3.9c0,0,10.3-3.1,3.5-13.8
			c0,0-3-3.7-6.1-6.5c0,0-7.5-6.7-9.8-12.2c0,0-4.3-9.6,0.8-18.8c0,0,5-9.9,18.4-12.7C178.9,299.5,192.8,297.7,201.5,302.6"/>
		<path class="st1" d="M125.1,260.9c-0.2-0.1,35.2-5.5,78.3-3.7c0,0,63.5,1.2,78.8,4.7c0,0-10.9,6-81.1,7.5
			C201.1,269.4,142.2,269.2,125.1,260.9"/>
	</g>
</g>
</svg>
